<svg xmlns="http://www.w3.org/2000/svg" width="600" height="400" viewBox="0 0 600 400"><rect width="100%" height="100%" fill="#DDDDDD"/><path fill="#999999" d="M147.76 241.735h21.62q5.96 0 10.02-1.43 4.05-1.43 6.48-3.81 2.42-2.39 3.5-5.57 1.07-3.18 1.07-6.75 0-3.74-1.19-6.72-1.2-2.98-3.74-5.09t-6.56-3.22q-4.01-1.11-9.66-1.11h-21.54zm18.2-81.72h-18.2v33.23h17.01q10.97 0 16.58-3.98 5.6-3.97 5.6-12.64 0-8.98-5.09-12.8-5.09-3.81-15.9-3.81m-39.59-16.54h39.59q11.29 0 19.32 2.15t13.16 6.12q5.13 3.98 7.51 9.62 2.39 5.65 2.39 12.72 0 4.05-1.2 7.75-1.19 3.7-3.69 6.92-2.51 3.22-6.36 5.84-3.86 2.62-9.19 4.45 23.7 5.33 23.7 25.6 0 7.32-2.79 13.52-2.78 6.2-8.11 10.69-5.32 4.49-13.11 7.04-7.79 2.54-17.81 2.54h-43.41zm144.69 93.89v-13.75q-8.5.4-14.31 1.47-5.8 1.07-9.3 2.74t-5.01 3.9q-1.51 2.22-1.51 4.85 0 5.16 3.06 7.39t7.99 2.23q6.04 0 10.46-2.19 4.41-2.19 8.62-6.64m-41.5-42.85-3.5-6.28q14.08-12.88 33.87-12.88 7.16 0 12.8 2.35 5.65 2.34 9.54 6.52 3.9 4.17 5.92 9.97 2.03 5.81 2.03 12.72v51.52h-8.9q-2.79 0-4.3-.83-1.51-.84-2.38-3.38l-1.75-5.89q-3.1 2.79-6.04 4.89-2.94 2.11-6.12 3.54t-6.8 2.19q-3.62.75-7.99.75-5.17 0-9.54-1.39t-7.55-4.17q-3.18-2.79-4.93-6.92t-1.75-9.62q0-3.1 1.03-6.16 1.04-3.06 3.38-5.84 2.35-2.79 6.08-5.25 3.74-2.47 9.19-4.29 5.44-1.83 12.68-2.98 7.23-1.16 16.53-1.4v-4.77q0-8.18-3.5-12.12-3.49-3.94-10.09-3.94-4.77 0-7.91 1.12-3.14 1.11-5.53 2.5-2.38 1.39-4.33 2.51-1.95 1.11-4.33 1.11-2.07 0-3.5-1.07-1.43-1.08-2.31-2.51m96.12-14.07 1.35 6.44q2.46-2.46 5.21-4.57 2.74-2.11 5.8-3.58t6.56-2.3q3.5-.84 7.63-.84 6.68 0 11.85 2.27 5.16 2.26 8.62 6.36 3.46 4.09 5.25 9.78 1.79 5.68 1.79 12.52v51.91H360.1v-51.91q0-7.48-3.42-11.57-3.42-4.1-10.41-4.1-5.09 0-9.54 2.31t-8.43 6.28v58.99h-19.63v-81.57h12q3.82 0 5.01 3.58m72.66-40.15h19.64v67.66h3.65q1.99 0 3.15-.52 1.15-.52 2.34-2.11l20.27-25.04q1.27-1.67 2.83-2.54 1.55-.88 4.01-.88h17.97l-25.36 30.29q-2.71 3.58-5.89 5.49 1.67 1.19 2.98 2.78 1.32 1.59 2.51 3.42l27.19 39.59H455.9q-2.31 0-3.98-.76-1.67-.75-2.78-2.74l-20.83-30.92q-1.11-1.83-2.3-2.39-1.2-.56-3.58-.56h-4.45v37.37h-19.64z"/></svg>